<svg width="383" height="119" viewBox="0 0 383 119" fill="none" xmlns="http://www.w3.org/2000/svg">
<circle cx="33.5" cy="85.5" r="33.5" fill="#68A8AD"/>
<circle cx="112.5" cy="85.5" r="33.5" fill="#F17D80"/>
<circle cx="191.5" cy="85.5" r="33.5" fill="#68A8AD"/>
<circle cx="270.5" cy="85.5" r="33.5" fill="#F17D80"/>
<circle cx="349.5" cy="85.5" r="33.5" fill="#68A8AD"/>
<path d="M25.104 97C24.6133 97 24.24 96.8507 23.984 96.552C23.728 96.232 23.6 95.8693 23.6 95.464C23.6 95.0373 23.728 94.6533 23.984 94.312L32.048 83.56L33.488 82.28L40.848 72.488C41.1467 72.168 41.5413 72.008 42.032 72.008C42.48 72.008 42.832 72.1467 43.088 72.424C43.344 72.7013 43.4827 73.0427 43.504 73.448C43.5253 73.8533 43.408 74.248 43.152 74.632L35.376 85L34 86.216L26.256 96.52C25.936 96.84 25.552 97 25.104 97ZM41.84 97C41.5627 97 41.3173 96.9573 41.104 96.872C40.912 96.7653 40.7307 96.6053 40.56 96.392L33.104 86.056L31.92 85.064L24.4 74.632C24.144 74.2907 24.0373 73.9173 24.08 73.512C24.1227 73.1067 24.272 72.7547 24.528 72.456C24.8053 72.1573 25.168 72.008 25.616 72.008C26.1707 72.008 26.5653 72.168 26.8 72.488L33.904 82.344L35.12 83.336L43.024 94.312C43.28 94.6533 43.3973 95.0373 43.376 95.464C43.3547 95.8907 43.2053 96.2533 42.928 96.552C42.672 96.8507 42.3093 97 41.84 97Z" fill="white"/>
<path d="M102.928 97C102.459 97 102.053 96.84 101.712 96.52C101.371 96.2 101.2 95.8053 101.2 95.336V73.672C101.2 73.1813 101.371 72.7867 101.712 72.488C102.053 72.168 102.459 72.008 102.928 72.008C103.419 72.008 103.803 72.168 104.08 72.488C104.379 72.7867 104.528 73.1813 104.528 73.672V91.816L119.888 72.616C120.229 72.2107 120.656 72.008 121.168 72.008C121.659 72.008 122.053 72.168 122.352 72.488C122.672 72.7867 122.832 73.1813 122.832 73.672V95.336C122.832 95.8053 122.672 96.2 122.352 96.52C122.053 96.84 121.659 97 121.168 97C120.699 97 120.304 96.84 119.984 96.52C119.664 96.2 119.504 95.8053 119.504 95.336V77.224L104.208 96.424C104.059 96.5947 103.867 96.7333 103.632 96.84C103.397 96.9467 103.163 97 102.928 97Z" fill="white"/>
<path d="M180.864 97C180.395 97 180 96.84 179.68 96.52C179.36 96.2 179.2 95.8053 179.2 95.336V73.672C179.2 73.1813 179.36 72.7867 179.68 72.488C180 72.168 180.395 72.008 180.864 72.008C181.504 72.008 181.995 72.3067 182.336 72.904L192.352 92.968H191.328L201.088 72.904C201.429 72.3067 201.92 72.008 202.56 72.008C203.029 72.008 203.424 72.168 203.744 72.488C204.064 72.7867 204.224 73.1813 204.224 73.672V95.336C204.224 95.8053 204.053 96.2 203.712 96.52C203.392 96.84 203.008 97 202.56 97C202.091 97 201.696 96.84 201.376 96.52C201.056 96.2 200.896 95.8053 200.896 95.336V78.28L201.536 78.12L193.152 95.208C192.789 95.7627 192.309 96.04 191.712 96.04C191.008 96.04 190.496 95.7093 190.176 95.048L181.888 78.44L182.528 78.28V95.336C182.528 95.8053 182.368 96.2 182.048 96.52C181.728 96.84 181.333 97 180.864 97Z" fill="white"/>
<path d="M356.304 97C355.835 97 355.44 96.84 355.12 96.52C354.8 96.2 354.64 95.8053 354.64 95.336V87.368H348.592V87.048C346.992 87.048 345.573 86.7493 344.336 86.152C343.12 85.5333 342.16 84.68 341.456 83.592C340.752 82.504 340.4 81.2667 340.4 79.88C340.4 78.344 340.752 76.9893 341.456 75.816C342.16 74.6213 343.12 73.6933 344.336 73.032C345.573 72.3493 346.992 72.008 348.592 72.008H356.304C356.795 72.008 357.189 72.168 357.488 72.488C357.808 72.7867 357.968 73.1813 357.968 73.672V95.336C357.968 95.8053 357.808 96.2 357.488 96.52C357.189 96.84 356.795 97 356.304 97ZM342.064 97C341.381 97 340.901 96.7333 340.624 96.2C340.347 95.6453 340.4 95.0587 340.784 94.44L346.032 85.992L349.264 86.92L343.504 96.2C343.333 96.4773 343.12 96.68 342.864 96.808C342.629 96.936 342.363 97 342.064 97ZM348.592 84.424H354.64V75.08H348.592C347.632 75.08 346.768 75.2613 346 75.624C345.253 75.9867 344.667 76.5307 344.24 77.256C343.813 77.96 343.6 78.8347 343.6 79.88C343.6 80.8613 343.813 81.6933 344.24 82.376C344.667 83.0373 345.253 83.5493 346 83.912C346.768 84.2533 347.632 84.424 348.592 84.424Z" fill="white"/>
<path d="M261.928 97C261.459 97 261.053 96.84 260.712 96.52C260.371 96.2 260.2 95.8053 260.2 95.336V73.672C260.2 73.1813 260.371 72.7867 260.712 72.488C261.053 72.168 261.459 72.008 261.928 72.008C262.419 72.008 262.803 72.168 263.08 72.488C263.379 72.7867 263.528 73.1813 263.528 73.672V91.816L278.888 72.616C279.229 72.2107 279.656 72.008 280.168 72.008C280.659 72.008 281.053 72.168 281.352 72.488C281.672 72.7867 281.832 73.1813 281.832 73.672V95.336C281.832 95.8053 281.672 96.2 281.352 96.52C281.053 96.84 280.659 97 280.168 97C279.699 97 279.304 96.84 278.984 96.52C278.664 96.2 278.504 95.8053 278.504 95.336V77.224L263.208 96.424C263.059 96.5947 262.867 96.7333 262.632 96.84C262.397 96.9467 262.163 97 261.928 97Z" fill="white"/>
<path d="M161.512 28C161.043 28 160.648 27.8507 160.328 27.552C160.029 27.232 159.88 26.8373 159.88 26.368V12.128C159.88 11.6373 160.029 11.2427 160.328 10.944C160.648 10.6453 161.043 10.496 161.512 10.496C162.195 10.496 162.771 10.8267 163.24 11.488L169.864 21.056L176.488 11.488C176.957 10.8267 177.533 10.496 178.216 10.496C178.707 10.496 179.101 10.6453 179.4 10.944C179.699 11.2427 179.848 11.6373 179.848 12.128V26.368C179.848 26.8373 179.699 27.232 179.4 27.552C179.101 27.8507 178.707 28 178.216 28C177.747 28 177.352 27.8507 177.032 27.552C176.733 27.232 176.584 26.8373 176.584 26.368V14.72L177.416 14.976L171.528 23.296C170.995 24.0427 170.419 24.416 169.8 24.416C169.181 24.3947 168.616 24.0213 168.104 23.296L162.312 14.976L163.144 14.72V26.368C163.144 26.8373 162.995 27.232 162.696 27.552C162.397 27.8507 162.003 28 161.512 28ZM193.535 28.128C191.807 28.128 190.281 27.7547 188.959 27.008C187.636 26.24 186.591 25.1947 185.823 23.872C185.076 22.528 184.703 20.992 184.703 19.264C184.703 17.5147 185.076 15.9787 185.823 14.656C186.591 13.312 187.636 12.2667 188.959 11.52C190.281 10.752 191.807 10.368 193.535 10.368C195.241 10.368 196.756 10.752 198.079 11.52C199.401 12.2667 200.436 13.312 201.183 14.656C201.951 15.9787 202.335 17.5147 202.335 19.264C202.335 20.992 201.961 22.528 201.215 23.872C200.468 25.1947 199.433 26.24 198.111 27.008C196.788 27.7547 195.263 28.128 193.535 28.128ZM193.535 25.248C194.644 25.248 195.625 24.992 196.479 24.48C197.332 23.968 197.993 23.264 198.463 22.368C198.953 21.472 199.199 20.4373 199.199 19.264C199.199 18.0907 198.953 17.056 198.463 16.16C197.993 15.2427 197.332 14.528 196.479 14.016C195.625 13.504 194.644 13.248 193.535 13.248C192.425 13.248 191.444 13.504 190.591 14.016C189.737 14.528 189.065 15.2427 188.575 16.16C188.084 17.056 187.839 18.0907 187.839 19.264C187.839 20.4373 188.084 21.472 188.575 22.368C189.065 23.264 189.737 23.968 190.591 24.48C191.444 24.992 192.425 25.248 193.535 25.248ZM218.265 28C217.817 28 217.443 27.8507 217.145 27.552C216.846 27.232 216.697 26.8373 216.697 26.368V22.144H212.185V21.728C211.054 21.728 210.051 21.504 209.177 21.056C208.302 20.608 207.619 19.9893 207.129 19.2C206.638 18.4107 206.393 17.4933 206.393 16.448C206.393 15.3173 206.659 14.304 207.193 13.408C207.747 12.512 208.494 11.808 209.433 11.296C210.393 10.7627 211.491 10.496 212.729 10.496H218.265C218.755 10.496 219.15 10.6453 219.449 10.944C219.747 11.2427 219.897 11.6373 219.897 12.128V26.4C219.875 26.8693 219.715 27.2533 219.417 27.552C219.139 27.8507 218.755 28 218.265 28ZM206.905 27.616C206.563 27.3173 206.403 26.9867 206.424 26.624C206.446 26.2613 206.574 25.9307 206.809 25.632L210.713 20.544H214.969L209.497 27.36C209.134 27.8293 208.686 28.0533 208.153 28.032C207.619 28.0107 207.203 27.872 206.905 27.616ZM212.729 19.456H216.697V13.536H212.729C211.875 13.536 211.129 13.8133 210.489 14.368C209.849 14.9013 209.529 15.5947 209.529 16.448C209.529 17.344 209.849 18.0693 210.489 18.624C211.129 19.1787 211.875 19.456 212.729 19.456Z" fill="white"/>
</svg>
