<svg width="334" height="94" viewBox="0 0 334 94" fill="none" xmlns="http://www.w3.org/2000/svg">
<circle cx="78.5" cy="60.5" r="33.5" fill="#68A8AD"/>
<circle cx="127.5" cy="60.5" r="33.5" fill="#4E4F78"/>
<circle cx="133.5" cy="60.5" r="33.5" fill="#F17D80"/>
<circle cx="183.5" cy="60.5" r="33.5" fill="#4E4F78"/>
<circle cx="188.5" cy="60.5" r="33.5" fill="#68A8AD"/>
<circle cx="240.5" cy="60.5" r="33.5" fill="#4E4F78"/>
<circle cx="246.5" cy="60.5" r="33.5" fill="#F17D80"/>
<circle cx="295.5" cy="60.5" r="33.5" fill="#4E4F78"/>
<circle cx="300.5" cy="60.5" r="33.5" fill="#68A8AD"/>
<path d="M66.104 72C65.6133 72 65.24 71.8507 64.984 71.552C64.728 71.232 64.6 70.8693 64.6 70.464C64.6 70.0373 64.728 69.6533 64.984 69.312L73.048 58.56L74.488 57.28L81.848 47.488C82.1467 47.168 82.5413 47.008 83.032 47.008C83.48 47.008 83.832 47.1467 84.088 47.424C84.344 47.7013 84.4827 48.0427 84.504 48.448C84.5253 48.8533 84.408 49.248 84.152 49.632L76.376 60L75 61.216L67.256 71.52C66.936 71.84 66.552 72 66.104 72ZM82.84 72C82.5627 72 82.3173 71.9573 82.104 71.872C81.912 71.7653 81.7307 71.6053 81.56 71.392L74.104 61.056L72.92 60.064L65.4 49.632C65.144 49.2907 65.0373 48.9173 65.08 48.512C65.1227 48.1067 65.272 47.7547 65.528 47.456C65.8053 47.1573 66.168 47.008 66.616 47.008C67.1707 47.008 67.5653 47.168 67.8 47.488L74.904 57.344L76.12 58.336L84.024 69.312C84.28 69.6533 84.3973 70.0373 84.376 70.464C84.3547 70.8907 84.2053 71.2533 83.928 71.552C83.672 71.8507 83.3093 72 82.84 72Z" fill="white"/>
<path d="M120.928 72C120.459 72 120.053 71.84 119.712 71.52C119.371 71.2 119.2 70.8053 119.2 70.336V48.672C119.2 48.1813 119.371 47.7867 119.712 47.488C120.053 47.168 120.459 47.008 120.928 47.008C121.419 47.008 121.803 47.168 122.08 47.488C122.379 47.7867 122.528 48.1813 122.528 48.672V66.816L137.888 47.616C138.229 47.2107 138.656 47.008 139.168 47.008C139.659 47.008 140.053 47.168 140.352 47.488C140.672 47.7867 140.832 48.1813 140.832 48.672V70.336C140.832 70.8053 140.672 71.2 140.352 71.52C140.053 71.84 139.659 72 139.168 72C138.699 72 138.304 71.84 137.984 71.52C137.664 71.2 137.504 70.8053 137.504 70.336V52.224L122.208 71.424C122.059 71.5947 121.867 71.7333 121.632 71.84C121.397 71.9467 121.163 72 120.928 72Z" fill="white"/>
<path d="M174.864 72C174.395 72 174 71.84 173.68 71.52C173.36 71.2 173.2 70.8053 173.2 70.336V48.672C173.2 48.1813 173.36 47.7867 173.68 47.488C174 47.168 174.395 47.008 174.864 47.008C175.504 47.008 175.995 47.3067 176.336 47.904L186.352 67.968H185.328L195.088 47.904C195.429 47.3067 195.92 47.008 196.56 47.008C197.029 47.008 197.424 47.168 197.744 47.488C198.064 47.7867 198.224 48.1813 198.224 48.672V70.336C198.224 70.8053 198.053 71.2 197.712 71.52C197.392 71.84 197.008 72 196.56 72C196.091 72 195.696 71.84 195.376 71.52C195.056 71.2 194.896 70.8053 194.896 70.336V53.28L195.536 53.12L187.152 70.208C186.789 70.7627 186.309 71.04 185.712 71.04C185.008 71.04 184.496 70.7093 184.176 70.048L175.888 53.44L176.528 53.28V70.336C176.528 70.8053 176.368 71.2 176.048 71.52C175.728 71.84 175.333 72 174.864 72Z" fill="white"/>
<path d="M307.304 72C306.835 72 306.44 71.84 306.12 71.52C305.8 71.2 305.64 70.8053 305.64 70.336V62.368H299.592V62.048C297.992 62.048 296.573 61.7493 295.336 61.152C294.12 60.5333 293.16 59.68 292.456 58.592C291.752 57.504 291.4 56.2667 291.4 54.88C291.4 53.344 291.752 51.9893 292.456 50.816C293.16 49.6213 294.12 48.6933 295.336 48.032C296.573 47.3493 297.992 47.008 299.592 47.008H307.304C307.795 47.008 308.189 47.168 308.488 47.488C308.808 47.7867 308.968 48.1813 308.968 48.672V70.336C308.968 70.8053 308.808 71.2 308.488 71.52C308.189 71.84 307.795 72 307.304 72ZM293.064 72C292.381 72 291.901 71.7333 291.624 71.2C291.347 70.6453 291.4 70.0587 291.784 69.44L297.032 60.992L300.264 61.92L294.504 71.2C294.333 71.4773 294.12 71.68 293.864 71.808C293.629 71.936 293.363 72 293.064 72ZM299.592 59.424H305.64V50.08H299.592C298.632 50.08 297.768 50.2613 297 50.624C296.253 50.9867 295.667 51.5307 295.24 52.256C294.813 52.96 294.6 53.8347 294.6 54.88C294.6 55.8613 294.813 56.6933 295.24 57.376C295.667 58.0373 296.253 58.5493 297 58.912C297.768 59.2533 298.632 59.424 299.592 59.424Z" fill="white"/>
<path d="M232.928 72C232.459 72 232.053 71.84 231.712 71.52C231.371 71.2 231.2 70.8053 231.2 70.336V48.672C231.2 48.1813 231.371 47.7867 231.712 47.488C232.053 47.168 232.459 47.008 232.928 47.008C233.419 47.008 233.803 47.168 234.08 47.488C234.379 47.7867 234.528 48.1813 234.528 48.672V66.816L249.888 47.616C250.229 47.2107 250.656 47.008 251.168 47.008C251.659 47.008 252.053 47.168 252.352 47.488C252.672 47.7867 252.832 48.1813 252.832 48.672V70.336C252.832 70.8053 252.672 71.2 252.352 71.52C252.053 71.84 251.659 72 251.168 72C250.699 72 250.304 71.84 249.984 71.52C249.664 71.2 249.504 70.8053 249.504 70.336V52.224L234.208 71.424C234.059 71.5947 233.867 71.7333 233.632 71.84C233.397 71.9467 233.163 72 232.928 72Z" fill="white"/>
<path d="M28 89.488C28 89.9573 27.8507 90.352 27.552 90.672C27.232 90.9707 26.8373 91.12 26.368 91.12H12.128C11.6373 91.12 11.2427 90.9707 10.944 90.672C10.6453 90.352 10.496 89.9573 10.496 89.488C10.496 88.8053 10.8267 88.2293 11.488 87.76L21.056 81.136L11.488 74.512C10.8267 74.0427 10.496 73.4667 10.496 72.784C10.496 72.2933 10.6453 71.8987 10.944 71.6C11.2427 71.3013 11.6373 71.152 12.128 71.152H26.368C26.8373 71.152 27.232 71.3013 27.552 71.6C27.8507 71.8987 28 72.2933 28 72.784C28 73.2533 27.8507 73.648 27.552 73.968C27.232 74.2667 26.8373 74.416 26.368 74.416H14.72L14.976 73.584L23.296 79.472C24.0427 80.0053 24.416 80.5813 24.416 81.2C24.3947 81.8187 24.0213 82.384 23.296 82.896L14.976 88.688L14.72 87.856H26.368C26.8373 87.856 27.232 88.0053 27.552 88.304C27.8507 88.6027 28 88.9973 28 89.488ZM28.128 57.4652C28.128 59.1932 27.7547 60.7186 27.008 62.0412C26.24 63.3639 25.1947 64.4092 23.872 65.1772C22.528 65.9239 20.992 66.2972 19.264 66.2972C17.5147 66.2972 15.9787 65.9239 14.656 65.1772C13.312 64.4092 12.2667 63.3639 11.52 62.0412C10.752 60.7186 10.368 59.1932 10.368 57.4652C10.368 55.7586 10.752 54.2439 11.52 52.9212C12.2667 51.5986 13.312 50.5639 14.656 49.8172C15.9787 49.0492 17.5147 48.6652 19.264 48.6652C20.992 48.6652 22.528 49.0386 23.872 49.7852C25.1947 50.5319 26.24 51.5666 27.008 52.8892C27.7547 54.2119 28.128 55.7372 28.128 57.4652ZM25.248 57.4652C25.248 56.3559 24.992 55.3746 24.48 54.5212C23.968 53.6679 23.264 53.0066 22.368 52.5372C21.472 52.0466 20.4373 51.8012 19.264 51.8012C18.0907 51.8012 17.056 52.0466 16.16 52.5372C15.2427 53.0066 14.528 53.6679 14.016 54.5212C13.504 55.3746 13.248 56.3559 13.248 57.4652C13.248 58.5746 13.504 59.5559 14.016 60.4092C14.528 61.2626 15.2427 61.9346 16.16 62.4252C17.056 62.9159 18.0907 63.1612 19.264 63.1612C20.4373 63.1612 21.472 62.9159 22.368 62.4252C23.264 61.9346 23.968 61.2626 24.48 60.4092C24.992 59.5559 25.248 58.5746 25.248 57.4652ZM28 32.7355C28 33.1835 27.8507 33.5568 27.552 33.8555C27.232 34.1542 26.8373 34.3035 26.368 34.3035H22.144V38.8155H21.728C21.728 39.9462 21.504 40.9488 21.056 41.8235C20.608 42.6982 19.9893 43.3808 19.2 43.8715C18.4107 44.3622 17.4933 44.6075 16.448 44.6075C15.3173 44.6075 14.304 44.3408 13.408 43.8075C12.512 43.2528 11.808 42.5062 11.296 41.5675C10.7627 40.6075 10.496 39.5088 10.496 38.2715V32.7355C10.496 32.2448 10.6453 31.8502 10.944 31.5515C11.2427 31.2528 11.6373 31.1035 12.128 31.1035H26.4C26.8693 31.1248 27.2533 31.2848 27.552 31.5835C27.8507 31.8608 28 32.2448 28 32.7355ZM27.616 44.0955C27.3173 44.4368 26.9867 44.5968 26.624 44.5755C26.2613 44.5542 25.9307 44.4262 25.632 44.1915L20.544 40.2875V36.0315L27.36 41.5035C27.8293 41.8662 28.0533 42.3142 28.032 42.8475C28.0107 43.3808 27.872 43.7968 27.616 44.0955ZM19.456 38.2715V34.3035H13.536V38.2715C13.536 39.1248 13.8133 39.8715 14.368 40.5115C14.9013 41.1515 15.5947 41.4715 16.448 41.4715C17.344 41.4715 18.0693 41.1515 18.624 40.5115C19.1787 39.8715 19.456 39.1248 19.456 38.2715Z" fill="white"/>
</svg>
